#tb 0: 1/25
#media_type 0: video
#codec_id 0: rawvideo
#dimensions 0: 256x288
#sar 0: 1/1
0,          0,          0,        1,   221184, 0x2a1149a3
0,          1,          1,        1,   221184, 0x698c49a3
0,          2,          2,        1,   221184, 0x9fc949a3
0,          3,          3,        1,   221184, 0x461b49a3
0,          4,          4,        1,   221184, 0xfbf849a3
0,          5,          5,        1,   221184, 0x416149a3
0,          6,          6,        1,   221184, 0xcb5149a3
0,          7,          7,        1,   221184, 0x1c8149a3
0,          8,          8,        1,   221184, 0x16e149a3
0,          9,          9,        1,   221184, 0x3edb49a3
0,         10,         10,        1,   221184, 0x6e5e49a3
0,         11,         11,        1,   221184, 0x674f49a3
0,         12,         12,        1,   221184, 0x373749a3
0,         13,         13,        1,   221184, 0x3e0449a3
0,         14,         14,        1,   221184, 0x185d49a3
0,         15,         15,        1,   221184, 0x420749a3
0,         16,         16,        1,   221184, 0xdfa149a3
0,         17,         17,        1,   221184, 0x431b49a3
0,         18,         18,        1,   221184, 0x3e9e49a3
0,         19,         19,        1,   221184, 0xf79749a3
0,         20,         20,        1,   221184, 0xf7ad49a3
0,         21,         21,        1,   221184, 0x0bd749a3
0,         22,         22,        1,   221184, 0x823f49a3
0,         23,         23,        1,   221184, 0x87dc49a3
0,         24,         24,        1,   221184, 0x6ec049a3
0,         25,         25,        1,   221184, 0x4a8549a3
0,         26,         26,        1,   221184, 0xde3f49a3
0,         27,         27,        1,   221184, 0x9fbb49a3
0,         28,         28,        1,   221184, 0x8d4c49a3
0,         29,         29,        1,   221184, 0xb35049a3
0,         30,         30,        1,   221184, 0xab2f49a3
0,         31,         31,        1,   221184, 0x2d6349a3
0,         32,         32,        1,   221184, 0x518c49a3
0,         33,         33,        1,   221184, 0x692949a3
0,         34,         34,        1,   221184, 0xde5849a3
0,         35,         35,        1,   221184, 0x9ebb49a3
0,         36,         36,        1,   221184, 0xb5a749a3
0,         37,         37,        1,   221184, 0x640449a3
0,         38,         38,        1,   221184, 0x871549a3
0,         39,         39,        1,   221184, 0xda6849a3
0,         40,         40,        1,   221184, 0x0ef249a3
0,         41,         41,        1,   221184, 0x61c249a3
0,         42,         42,        1,   221184, 0x1ca849a3
0,         43,         43,        1,   221184, 0xf61149a3
0,         44,         44,        1,   221184, 0x672249a3
0,         45,         45,        1,   221184, 0x71b249a3
0,         46,         46,        1,   221184, 0xc82349a3
0,         47,         47,        1,   221184, 0x151949a3
0,         48,         48,        1,   221184, 0x8d7c49a3
0,         49,         49,        1,   221184, 0xebf649a3
